# xmcd
#
# Track frame offsets:
#	150
#	11931
#	26866
#	40133
#	55793
#	70758
#	83932
#	99624
#	116025
#	131322
#	148945
#	176541
#	195251
#	217383
#	241506
#	263492
#
# Disc length: 3791 seconds
#
# Revision: 1
# Processed by: cddbd v1.5.2PL0 Copyright (c) Steve Scherf et al.
# Submitted via: audiograbber 1.82.02
#
DISCID=e10ecd10
DTITLE=Snooks Eaglin - Great Blues Masters Vol.5
DYEAR=2006
DGENRE=Blues
TTITLE0=You Give Me Nothing But the Blues
TTITLE1=Baby Please
TTITLE2=Drop the Bomb!
TTITLE3=Oh Lawdy, My Baby
TTITLE4=Lipstick Trces
TTITLE5=Mailman Blues
TTITLE6=Cheeta
TTITLE7=Baby, Please Come Home
TTITLE8=Travelin' Mood
TTITLE9=Red Bens
TTITLE10=Josephine
TTITLE11=Show Me the Way Back Home
TTITLE12=I Went to the Mardi Gras
TTITLE13=Talk to Me
TTITLE14=Boogie on Reggae Woman
TTITLE15=Down Yonder, We Go Ballin'
EXTD=
EXTT0=
EXTT1=
EXTT2=
EXTT3=
EXTT4=
EXTT5=
EXTT6=
EXTT7=
EXTT8=
EXTT9=
EXTT10=
EXTT11=
EXTT12=
EXTT13=
EXTT14=
EXTT15=
PLAYORDER=
